X Lossless Decoder version 20181019 (151.1)

XLD extraction logfile from 2019-11-30 23:10:42 +0100

 / Die drei ??? - Folge 202 - Das weiße Grab

Used drive : ASUS BW-16D1HT (revision 3.01)
Media type : Pressed CD

Ripper mode             : XLD Secure Ripper
Disable audio cache     : OK for the drive with a cache less than 1375KiB
Make use of C2 pointers : NO
Read offset correction  : 6
Max retry count         : 40
Gap status              : Analyzed, Appended

TOC of the extracted CD
     Track |   Start  |  Length  | Start sector | End sector 
    ---------------------------------------------------------
        1  | 00:00:00 | 08:53:68 |         0    |    40042   
        2  | 08:53:68 | 09:03:17 |     40043    |    80784   
        3  | 17:57:10 | 12:34:27 |     80785    |   137361   
        4  | 30:31:37 | 14:20:00 |    137362    |   201861   
        5  | 44:51:37 | 07:31:61 |    201862    |   235747   
        6  | 52:23:23 | 08:48:23 |    235748    |   275370   
        7  | 61:11:46 | 14:56:48 |    275371    |   342618   

AccurateRip Summary
    Disc not found in AccurateRip DB.

All Tracks
    Filename : ~/Projects/Audiobooks/_temp/Die drei ??? - Folge 202 - Das weiße Grab.m4a
    CRC32 hash               : 71F67201
    CRC32 hash (skip zero)   : CCD95C81
    Statistics
        Read error                           : 0
        Jitter error (maybe fixed)           : 0
        Retry sector count                   : 0
        Damaged sector count                 : 0

Track 01
    Pre-gap length : 00:02:00

    CRC32 hash               : 54E9DC70
    CRC32 hash (skip zero)   : 41E56E6A
    AccurateRip v1 signature : AEA19A64
    AccurateRip v2 signature : 042BEAAA
        ->Track not present in AccurateRip database.
    Statistics
        Read error                           : 0
        Jitter error (maybe fixed)           : 0
        Retry sector count                   : 0
        Damaged sector count                 : 0

Track 02

    CRC32 hash               : CBFE4DFA
    CRC32 hash (skip zero)   : 5FFD10C4
    AccurateRip v1 signature : 5BC40DDC
    AccurateRip v2 signature : D5681234
        ->Track not present in AccurateRip database.
    Statistics
        Read error                           : 0
        Jitter error (maybe fixed)           : 0
        Retry sector count                   : 0
        Damaged sector count                 : 0

Track 03

    CRC32 hash               : F4F331BC
    CRC32 hash (skip zero)   : 68757654
    AccurateRip v1 signature : CC0AE888
    AccurateRip v2 signature : A892E4C7
        ->Track not present in AccurateRip database.
    Statistics
        Read error                           : 0
        Jitter error (maybe fixed)           : 0
        Retry sector count                   : 0
        Damaged sector count                 : 0

Track 04

    CRC32 hash               : 198F3F8A
    CRC32 hash (skip zero)   : 9A43405E
    AccurateRip v1 signature : 6971D509
    AccurateRip v2 signature : D1EC9C5B
        ->Track not present in AccurateRip database.
    Statistics
        Read error                           : 0
        Jitter error (maybe fixed)           : 0
        Retry sector count                   : 0
        Damaged sector count                 : 0

Track 05

    CRC32 hash               : AAF5F27F
    CRC32 hash (skip zero)   : 60015539
    AccurateRip v1 signature : 21BDCD4F
    AccurateRip v2 signature : D5152116
        ->Track not present in AccurateRip database.
    Statistics
        Read error                           : 0
        Jitter error (maybe fixed)           : 0
        Retry sector count                   : 0
        Damaged sector count                 : 0

Track 06

    CRC32 hash               : B5A64F5D
    CRC32 hash (skip zero)   : 2A078CA9
    AccurateRip v1 signature : E6103C00
    AccurateRip v2 signature : EED7FD89
        ->Track not present in AccurateRip database.
    Statistics
        Read error                           : 0
        Jitter error (maybe fixed)           : 0
        Retry sector count                   : 0
        Damaged sector count                 : 0

Track 07

    CRC32 hash               : 1192A654
    CRC32 hash (skip zero)   : 84DF784F
    AccurateRip v1 signature : E0ADC3B9
    AccurateRip v2 signature : 78E57C23
        ->Track not present in AccurateRip database.
    Statistics
        Read error                           : 0
        Jitter error (maybe fixed)           : 0
        Retry sector count                   : 0
        Damaged sector count                 : 0

No errors occurred

End of status report
